PathFileType	4	(X/Y/Z)	C:/Users/opensim2020/Desktop/walking_exp_matlab/subject06_walking13_straight_03.trc																																																																																																																																																				
DataRate	CameraRate	NumFrames	NumMarkers	Units	OrigDataRate	OrigDataStartFrame	OrigNumFrames																																																																																																																																																
100	100	6	50	mm	100	2336	172																																																																																																																																																
Frame#	Time	LFHD			RFHD			LBHD			RBHD			C7			T10			CLAV			STRN			RBAK			LSHO			LUPA			LELB			LFRM			LWRA			LWRB			LFIN			RSHO			RUPA			RELB			RFRM			RWRA			RWRB			RFIN			LASI			RASI			LPSI			RPSI			LTHI			LKNE			LTIB			LANK			LHEE			LTOE			RTHI			RKNE			RTIB			RANK			RHEE			RTOE			*39			*40			*41			*42			*43			*44			*45			*46			*47			*48			*49		
		X1	Y1	Z1	X2	Y2	Z2	X3	Y3	Z3	X4	Y4	Z4	X5	Y5	Z5	X6	Y6	Z6	X7	Y7	Z7	X8	Y8	Z8	X9	Y9	Z9	X10	Y10	Z10	X11	Y11	Z11	X12	Y12	Z12	X13	Y13	Z13	X14	Y14	Z14	X15	Y15	Z15	X16	Y16	Z16	X17	Y17	Z17	X18	Y18	Z18	X19	Y19	Z19	X20	Y20	Z20	X21	Y21	Z21	X22	Y22	Z22	X23	Y23	Z23	X24	Y24	Z24	X25	Y25	Z25	X26	Y26	Z26	X27	Y27	Z27	X28	Y28	Z28	X29	Y29	Z29	X30	Y30	Z30	X31	Y31	Z31	X32	Y32	Z32	X33	Y33	Z33	X34	Y34	Z34	X35	Y35	Z35	X36	Y36	Z36	X37	Y37	Z37	X38	Y38	Z38	X39	Y39	Z39	X40	Y40	Z40	X41	Y41	Z41	X42	Y42	Z42	X43	Y43	Z43	X44	Y44	Z44	X45	Y45	Z45	X46	Y46	Z46	X47	Y47	Z47	X48	Y48	Z48	X49	Y49	Z49	X50	Y50	Z50
																																																																																																																																																							
151	1.5	865.14783	1668.03748	-1024.7749	842.63269	1651.86755	-895.85187	732.38245	1619.92651	-1050.53076	711.44397	1608.96228	-923.21045	717.65247	1458.46582	-993.70422	672.25275	1131.10742	-990.33234	825.33649	1377.54675	-987.03632	859.09937	1201.4054	-995.2757	635.30237	1289.55444	-920.93152	780.56177	1413.49829	-1151.38684	776.51282	1210.4259	-1220.97717	771.12531	1097.14392	-1230.45447	815.83997	953.55554	-1254.51672	904.11462	856.18976	-1219.42554	842.58948	837.24915	-1249.21765	900.64209	767.76648	-1254.21045	769.89032	1408.9657	-830.06842	741.46051	1207.62585	-749.30707	758.74811	1087.32007	-735.97522	775.6673	968.95416	-714.14331	845.20911	830.72308	-729.03656	784.0274	830.58234	-701.60785	821.66321	755.16412	-691.7641	852.17267	970.48059	-1097.80237	850.22784	974.93585	-876.97015	691.38245	993.66595	-1071.61755	698.08569	999.57849	-903.27386	840.03015	657.02246	-1162.28784	884.33392	499.66782	-1142.76672	737.55603	300.11676	-1143.29333	644.1192	153.63454	-1112.36133	603.35132	155.7868	-1064.20898	750.95605	59.18702	-1120.83105	809.85492	637.81378	-833.21344	822.31738	513.42609	-861.3252	760.98383	251.07054	-872.20343	736.06281	68.57744	-927.53949	695.03162	46.33714	-972.96191	888.79266	32.48799	-927.83545	758.00677	1708.71875	-981.60114	NaN	NaN	NaN	NaN	NaN	NaN	NaN	NaN	NaN	NaN	NaN	NaN	NaN	NaN	NaN	NaN	NaN	NaN	NaN	NaN	NaN	NaN	NaN	NaN	NaN	NaN	NaN	NaN	NaN	NaN
152	1.51	875.12378	1667.78406	-1024.25256	852.63483	1651.63733	-895.32355	742.22449	1619.85083	-1049.92297	721.3562	1608.86584	-922.64771	727.40094	1458.35657	-992.99133	681.53363	1131.02795	-989.62952	834.88776	1377.39795	-986.47852	868.4527	1201.22534	-994.47614	644.78259	1289.64258	-919.84705	790.06744	1413.27905	-1150.90515	783.73187	1210.13306	-1220.26331	776.7403	1097.03357	-1229.9281	816.78497	952.15656	-1254.5824	901.91046	851.5249	-1220.75366	839.36499	834.92383	-1249.86426	894.68665	763.33105	-1255.69507	779.34021	1408.93103	-829.65894	753.98926	1207.89258	-747.98096	774.09296	1088.03711	-733.86145	794.36731	970.19012	-711.42853	866.69586	833.61108	-726.03015	805.71198	832.31866	-698.04578	845.29865	757.98303	-687.71198	862.11383	970.72668	-1096.36218	858.72137	974.65601	-875.76514	701.28082	993.64117	-1071.46472	706.86444	999.37555	-903.16003	853.80133	658.35162	-1162.28088	900.08765	501.69626	-1142.33289	760.15442	296.68143	-1143.76172	672.43427	146.50452	-1113.29163	631.19763	146.89577	-1064.96167	783.23358	56.89146	-1121.95764	815.35809	637.1748	-832.83618	827.09149	512.70313	-861.0589	762.93134	250.98105	-872.26703	736.409	68.72761	-927.71143	695.07202	46.73105	-973.13452	888.83716	32.44006	-927.78998	768.08203	1708.61243	-981.07605	NaN	NaN	NaN	NaN	NaN	NaN	NaN	NaN	NaN	NaN	NaN	NaN	NaN	NaN	NaN	NaN	NaN	NaN	NaN	NaN	NaN	NaN	NaN	NaN	NaN	NaN	NaN	NaN	NaN	NaN
153	1.52	885.073	1667.42529	-1023.70807	862.58521	1651.2406	-894.81604	752.16046	1619.67749	-1049.47546	731.28839	1608.65222	-922.18176	736.85144	1458.12854	-992.23499	690.72424	1130.82019	-989.01044	844.41791	1377.10718	-986.03369	877.80054	1200.91626	-993.72003	654.28833	1289.21411	-919.12146	799.46973	1412.92175	-1150.4165	791.10925	1209.8186	-1219.86462	782.44055	1096.8877	-1229.57593	817.87579	950.92188	-1254.87903	899.73676	847.24121	-1222.23962	836.20227	832.93695	-1250.60425	888.7467	759.24963	-1257.11841	788.88171	1408.94128	-829.31586	766.78918	1208.17664	-746.3819	789.18665	1088.75537	-731.65558	812.32562	971.64465	-708.37207	888.12158	836.89893	-722.99176	827.37122	834.21039	-694.4903	869.11328	761.22192	-683.67346	872.1676	970.82709	-1095.09973	867.42664	974.29144	-874.42383	711.03729	993.47827	-1071.37048	716.16412	998.75092	-903.18457	868.37213	659.69019	-1161.75281	915.53619	503.53214	-1141.98718	782.74756	293.09674	-1144.29968	701.28613	139.27444	-1114.1925	660.3269	137.66357	-1066.10925	816.25287	55.0032	-1123.06689	822.43164	636.91345	-832.95959	831.90216	511.91525	-860.56195	764.70074	250.87526	-872.32959	736.66565	68.78013	-928.04108	695.61835	46.89887	-973.60468	889.06348	32.54765	-927.74493	778.11322	1708.33789	-980.4906	NaN	NaN	NaN	NaN	NaN	NaN	NaN	NaN	NaN	NaN	NaN	NaN	NaN	NaN	NaN	NaN	NaN	NaN	NaN	NaN	NaN	NaN	NaN	NaN	NaN	NaN	NaN	NaN	NaN	NaN
154	1.53	895.047	1666.94434	-1023.25684	872.49866	1650.72803	-894.29767	762.00488	1619.3457	-1048.95276	741.14282	1608.33252	-921.74249	746.59973	1457.87354	-991.82239	700.21185	1130.42578	-988.54779	853.96436	1376.7041	-985.57739	887.14771	1200.49072	-992.97052	663.64703	1288.98157	-918.31995	808.83344	1412.45923	-1149.99719	798.45459	1209.5094	-1219.69812	788.02277	1096.66907	-1229.29871	819.03992	949.7973	-1255.28247	897.43414	843.16083	-1223.72229	833.19067	831.21576	-1251.46033	882.78601	755.47772	-1258.45996	798.40637	1408.79517	-828.98059	778.44562	1208.36719	-745.35498	803.76337	1089.44702	-729.4635	830.1181	973.17499	-705.60773	909.38763	840.54254	-720.0033	848.99353	836.38733	-690.97516	892.58923	764.84619	-679.79395	882.02264	970.89978	-1093.62878	875.97681	973.75732	-873.31848	720.97614	993.14929	-1071.31738	724.95898	998.22998	-903.02289	881.41931	660.82239	-1162.0968	930.58972	505.12354	-1141.72461	805.55231	289.27414	-1144.79773	730.7428	131.97278	-1115.05603	689.75446	128.43394	-1067.09387	849.4765	53.18642	-1123.85291	828.00806	636.11896	-832.72064	836.0506	511.26639	-860.60297	766.61536	250.78183	-872.31812	736.90118	68.90194	-928.21716	695.44769	47.28209	-973.67291	889.03406	32.43264	-927.7124	788.12427	1707.96497	-979.98926	NaN	NaN	NaN	NaN	NaN	NaN	NaN	NaN	NaN	NaN	NaN	NaN	NaN	NaN	NaN	NaN	NaN	NaN	NaN	NaN	NaN	NaN	NaN	NaN	NaN	NaN	NaN	NaN	NaN	NaN
155	1.54	904.974	1666.38245	-1022.77411	882.3537	1650.14929	-893.84637	771.91681	1618.93518	-1048.52698	750.98486	1607.88525	-921.33545	756.19958	1457.38464	-991.23077	709.5412	1129.93982	-988.01874	863.39935	1376.18103	-985.09802	896.48822	1199.95203	-992.27844	673.13947	1288.51245	-917.72351	818.33893	1411.89221	-1149.67627	805.6261	1208.90833	-1219.21753	793.68024	1096.40051	-1229.19543	820.23926	948.83081	-1255.71912	895.31128	839.47778	-1225.19043	830.44019	829.80872	-1252.61292	877.05145	752.13324	-1259.7218	807.93488	1408.51624	-828.80579	790.7467	1208.60339	-743.75439	817.95105	1090.17029	-727.22681	847.57141	974.79498	-702.83807	930.3028	844.4007	-717.15417	870.47754	838.82617	-687.534	916.63586	769.01196	-675.55035	892.16852	970.93634	-1092.47876	884.55322	973.06165	-872.27289	730.80103	992.6759	-1071.30493	733.86072	997.50269	-902.91821	893.8858	661.55756	-1162.48975	945.2041	506.50293	-1141.50134	828.54596	285.29202	-1145.29675	760.79358	124.7108	-1115.89563	719.64954	119.27676	-1068.01172	883.23865	51.9095	-1124.69666	834.35486	635.4668	-832.73315	840.83954	510.48309	-860.13544	768.63672	250.62735	-872.35492	737.19745	68.99912	-928.30005	695.58813	47.50299	-973.61902	889.09772	32.37217	-927.672	798.04614	1707.50159	-979.49585	NaN	NaN	NaN	NaN	NaN	NaN	NaN	NaN	NaN	NaN	NaN	NaN	NaN	NaN	NaN	NaN	NaN	NaN	NaN	NaN	NaN	NaN	NaN	NaN	NaN	NaN	NaN	NaN	NaN	NaN
156	1.55	914.91913	1665.67627	-1022.35345	892.30084	1649.4585	-893.43396	781.74756	1618.44849	-1048.12512	760.79816	1607.34949	-920.92688	765.93628	1456.8866	-990.89581	718.91962	1129.44031	-987.60828	872.91687	1375.58948	-984.70636	905.85486	1199.32666	-991.63446	682.59961	1288.1344	-916.97711	827.88031	1411.1825	-1149.35181	813.00049	1208.47388	-1219.30603	799.1936	1096.00439	-1229.0033	821.72778	948.0116	-1256.42664	893.25964	836.0827	-1226.8053	827.91162	828.71326	-1253.88452	871.68579	749.2168	-1260.98682	817.4444	1408.1604	-828.61438	802.44287	1208.75806	-742.45526	831.66833	1090.88464	-725.02307	864.79486	976.51031	-700.35571	951.30402	848.90186	-714.07281	891.71027	841.53564	-684.23773	940.24445	773.5835	-671.60553	902.22443	970.90039	-1091.41309	893.40955	972.34149	-871.18488	740.604	992.30243	-1071.3374	742.8399	996.7301	-902.82574	906.58521	662.18475	-1162.54883	959.45941	507.66562	-1141.39819	851.64166	281.14929	-1146.06946	791.41925	117.60442	-1116.65088	750.3548	110.17241	-1068.82117	917.08118	50.82462	-1125.17761	840.54083	634.69055	-832.63739	845.34277	509.61661	-860.03284	770.66235	250.48193	-872.44635	737.50122	69.21797	-928.28534	696.01776	47.31813	-973.87592	889.09363	32.40735	-927.68793	808.01215	1706.96326	-979.0835	NaN	NaN	NaN	NaN	NaN	NaN	NaN	NaN	NaN	NaN	NaN	NaN	NaN	NaN	NaN	NaN	NaN	NaN	NaN	NaN	NaN	NaN	NaN	NaN	NaN	NaN	NaN	NaN	NaN	NaN
